# xmcd
#
# Track frame offsets: 
#        150
#        19878
#        36840
#        50875
#        63828
#        79526
#        96404
#        111514
#        128515
#        147041
#        163532
#        180798
#        197900
#        215077
#        229780
#        247037
#
# Disc length: 3499 seconds
#
# Revision: 2
# Processed by: cddbd v1.5.2PL0 Copyright (c) Steve Scherf et al.
# Submitted via: ExactAudioCopy v0.95a5
#
DISCID=df0da910
DTITLE=蔡琴 - 一致公认的最发烧人声试音天碟 Vol. 4
DYEAR=1900
DGENRE=Blues
TTITLE0=情是什么
TTITLE1=直到那一天
TTITLE2=被遗忘的时光
TTITLE3=想你的时候
TTITLE4=希望还能遇见你
TTITLE5=情迷
TTITLE6=青春湖畔
TTITLE7=未完成的歌
TTITLE8=爱与酒
TTITLE9=永久的城
TTITLE10=如果你要离去
TTITLE11=假装我们还相恋
TTITLE12=想你一整夜
TTITLE13=永远永远不变
TTITLE14=爱情的喜悦
TTITLE15=我怎能离开你
EXTD=
EXTT0=
EXTT1=
EXTT2=
EXTT3=
EXTT4=
EXTT5=
EXTT6=
EXTT7=
EXTT8=
EXTT9=
EXTT10=
EXTT11=
EXTT12=
EXTT13=
EXTT14=
EXTT15=
PLAYORDER=
